<svg xmlns="http://www.w3.org/2000/svg" viewBox="0 0 1200 800" preserveAspectRatio="none">
  <defs>
    <linearGradient id="terrainBg" x1="0%" y1="0%" x2="0%" y2="100%">
      <stop offset="0%" style="stop-color:#3d2868"/>
      <stop offset="50%" style="stop-color:#2e1e50"/>
      <stop offset="100%" style="stop-color:#0a0515"/>
    </linearGradient>
  </defs>
  <rect width="1200" height="800" fill="url(#terrainBg)"/>
  <!-- White contour band -->
  <path d="M0 80 Q100 60 200 90 Q350 130 500 85 Q650 40 800 75 Q950 110 1100 70 Q1150 60 1200 65" fill="none" stroke="rgba(255,255,255,0.1)" stroke-width="1"/>
  <path d="M0 110 Q100 90 200 120 Q350 160 500 115 Q650 70 800 105 Q950 140 1100 100 Q1150 90 1200 95" fill="none" stroke="rgba(255,255,255,0.07)" stroke-width="0.8"/>
  <path d="M0 140 Q100 120 200 150 Q350 190 500 145 Q650 100 800 135 Q950 170 1100 130 Q1150 120 1200 125" fill="none" stroke="rgba(255,255,255,0.05)" stroke-width="0.6"/>
  <!-- Gold contour band -->
  <path d="M0 250 Q150 220 300 260 Q500 310 700 250 Q850 210 1000 245 Q1100 265 1200 240" fill="none" stroke="rgba(212,175,55,0.12)" stroke-width="1.1"/>
  <path d="M0 280 Q150 250 300 290 Q500 340 700 280 Q850 240 1000 275 Q1100 295 1200 270" fill="none" stroke="rgba(212,175,55,0.08)" stroke-width="0.9"/>
  <path d="M0 310 Q150 280 300 320 Q500 370 700 310 Q850 270 1000 305 Q1100 325 1200 300" fill="none" stroke="rgba(212,175,55,0.05)" stroke-width="0.7"/>
  <!-- Teal contour band -->
  <path d="M0 420 Q200 390 400 430 Q600 470 800 420 Q950 385 1100 415 Q1150 425 1200 410" fill="none" stroke="rgba(0,210,190,0.12)" stroke-width="1.1"/>
  <path d="M0 450 Q200 420 400 460 Q600 500 800 450 Q950 415 1100 445 Q1150 455 1200 440" fill="none" stroke="rgba(0,210,190,0.08)" stroke-width="0.9"/>
  <path d="M0 480 Q200 450 400 490 Q600 530 800 480 Q950 445 1100 475 Q1150 485 1200 470" fill="none" stroke="rgba(0,210,190,0.05)" stroke-width="0.7"/>
  <!-- White lower band -->
  <path d="M0 580 Q180 550 360 590 Q550 630 740 580 Q900 540 1060 575 Q1130 590 1200 570" fill="none" stroke="rgba(255,255,255,0.08)" stroke-width="1"/>
  <path d="M0 610 Q180 580 360 620 Q550 660 740 610 Q900 570 1060 605 Q1130 620 1200 600" fill="none" stroke="rgba(255,255,255,0.05)" stroke-width="0.7"/>
  <!-- Gold lower accent -->
  <path d="M0 700 Q300 670 600 710 Q900 750 1200 700" fill="none" stroke="rgba(212,175,55,0.07)" stroke-width="0.8"/>
  <path d="M0 730 Q300 700 600 740 Q900 780 1200 730" fill="none" stroke="rgba(212,175,55,0.04)" stroke-width="0.6"/>
  <!-- Teal lower accent -->
  <path d="M0 760 Q300 730 600 770 Q900 800 1200 760" fill="none" stroke="rgba(0,210,190,0.06)" stroke-width="0.7"/>
  <!-- Closed contours (elevation markers) -->
  <ellipse cx="200" cy="180" rx="60" ry="22" fill="none" stroke="rgba(255,255,255,0.05)" stroke-width="0.6"/>
  <ellipse cx="900" cy="350" rx="70" ry="25" fill="none" stroke="rgba(212,175,55,0.06)" stroke-width="0.6"/>
  <ellipse cx="500" cy="520" rx="55" ry="20" fill="none" stroke="rgba(0,210,190,0.06)" stroke-width="0.6"/>
  <ellipse cx="1000" cy="600" rx="65" ry="22" fill="none" stroke="rgba(255,255,255,0.04)" stroke-width="0.5"/>
</svg>
