<svg xmlns="http://www.w3.org/2000/svg" viewBox="0 0 400 300"><rect width="400" height="300" fill="#12082a"/><circle cx="100" cy="120" r="15" fill="#c084fc" opacity="0.6"/><circle cx="160" cy="115" r="15" fill="#c084fc" opacity="0.6"/><circle cx="220" cy="120" r="15" fill="#c084fc" opacity="0.6"/><circle cx="280" cy="115" r="15" fill="#c084fc" opacity="0.6"/><path d="M85 138 Q100 145 115 138 L117 165 Q100 172 83 165 Z" fill="#2d1450" stroke="#c084fc" stroke-width="1"/><path d="M145 133 Q160 140 175 133 L177 160 Q160 167 143 160 Z" fill="#2d1450" stroke="#c084fc" stroke-width="1"/><path d="M205 138 Q220 145 235 138 L237 165 Q220 172 203 165 Z" fill="#2d1450" stroke="#c084fc" stroke-width="1"/><path d="M265 133 Q280 140 295 133 L297 160 Q280 167 263 160 Z" fill="#2d1450" stroke="#c084fc" stroke-width="1"/><path d="M50 200 Q200 185 350 200" fill="none" stroke="#d4af37" stroke-width="1.5" opacity="0.5"/><path d="M50 210 Q200 195 350 210" fill="none" stroke="#00d2be" stroke-width="1" opacity="0.3"/><text x="200" y="285" text-anchor="middle" font-family="sans-serif" font-size="10" fill="#c084fc" opacity="0.6">Defensive wall</text></svg>
